<?xml version="1.0" standalone="no"?>
<!DOCTYPE svg PUBLIC "-//W3C//DTD SVG 20010904//EN"
 "http://www.w3.org/TR/2001/REC-SVG-20010904/DTD/svg10.dtd">
<svg version="1.0" xmlns="http://www.w3.org/2000/svg"
 width="507.000000pt" height="507.000000pt" viewBox="0 0 507.000000 507.000000"
 preserveAspectRatio="xMidYMid meet">
<metadata>
Created by potrace 1.11, written by Peter Selinger 2001-2013
</metadata>
<g transform="translate(0.000000,507.000000) scale(0.100000,-0.100000)"
fill="#000000" stroke="none">
<path d="M2185 4229 c-38 -4 -86 -9 -105 -12 -19 -3 -71 -9 -115 -12 -109 -9
-244 -32 -280 -50 -16 -8 -46 -18 -65 -23 -39 -10 -180 -97 -180 -111 0 -11
-23 -20 -69 -27 -47 -7 -81 -30 -81 -54 0 -11 -8 -28 -19 -37 -75 -72 -115
-105 -151 -128 -41 -26 -80 -77 -80 -106 0 -8 -14 -28 -30 -44 -20 -19 -30
-39 -30 -57 0 -21 -6 -31 -23 -37 -15 -6 -27 -23 -35 -50 -7 -22 -24 -54 -38
-70 -14 -17 -30 -46 -35 -65 l-9 -34 -73 0 c-86 1 -106 -1 -132 -12 -11 -4
-32 -13 -48 -19 -19 -7 -29 -20 -34 -42 -3 -17 -18 -40 -34 -51 -24 -18 -28
-28 -28 -67 1 -25 -6 -62 -14 -81 -8 -19 -13 -44 -11 -55 11 -75 11 -115 -2
-133 -10 -15 -11 -27 -2 -53 18 -56 31 -76 72 -108 31 -25 48 -31 87 -31 28 0
49 -5 49 -11 0 -6 8 -8 18 -5 9 3 23 2 30 -3 19 -11 -11 -111 -45 -151 -29
-35 -22 -39 15 -10 34 27 37 20 56 -108 19 -124 45 -230 86 -342 56 -153 91
-219 208 -397 23 -37 -2 -27 -60 22 -40 35 -53 53 -55 75 -1 33 -31 86 -63
115 -11 10 -20 23 -20 28 0 19 -68 112 -99 135 -35 26 -37 23 -16 -18 8 -16
18 -46 21 -67 8 -48 29 -90 54 -106 11 -6 20 -19 20 -28 0 -9 34 -52 75 -97
42 -44 74 -84 73 -89 -2 -8 20 -54 31 -63 4 -3 25 -31 47 -62 42 -60 115 -118
150 -118 21 0 48 -25 77 -72 10 -16 26 -28 39 -28 11 0 26 -7 32 -16 6 -8 29
-19 51 -24 l40 -9 -40 34 c-66 55 -32 50 62 -10 183 -117 378 -195 603 -241
74 -15 174 -21 345 -23 241 -2 233 -3 253 8 9 5 37 11 61 15 24 3 49 10 55 15
6 5 31 11 56 14 25 3 59 8 75 12 17 3 66 10 110 15 87 9 201 46 247 80 16 12
48 34 71 50 23 15 54 41 69 57 44 46 84 86 114 115 16 14 42 43 58 63 l29 36
-29 -7 c-24 -6 -27 -5 -18 7 6 8 10 26 8 40 -3 19 4 33 26 52 16 15 30 32 30
38 0 6 11 -2 24 -18 28 -33 66 -117 66 -145 0 -11 10 -34 22 -51 12 -18 22
-33 23 -35 2 -2 22 -5 46 -8 53 -6 59 -10 59 -34 0 -23 38 -50 83 -59 49 -11
195 16 263 48 38 18 69 41 84 62 13 19 46 56 73 82 46 44 49 51 44 86 -3 29
-1 40 13 49 16 10 30 57 31 106 0 27 17 56 33 56 18 0 26 22 26 68 0 20 4 43
9 51 5 8 5 25 -1 42 -11 33 -1 56 48 112 35 38 40 52 25 76 -6 9 -1 30 11 59
17 39 19 49 8 66 -31 49 -12 116 50 182 36 39 53 78 51 122 0 19 10 51 22 73
19 33 20 42 9 59 -10 16 -10 26 2 54 13 31 12 37 -4 62 -62 94 -129 139 -184
123 -17 -5 -64 -12 -105 -16 -54 -4 -89 -13 -129 -34 -30 -16 -60 -29 -66 -29
-7 0 -32 -20 -55 -45 -23 -25 -49 -45 -58 -45 -9 0 -24 -7 -34 -16 -9 -8 -31
-16 -49 -16 -19 -1 -36 -8 -43 -20 -7 -10 -17 -18 -24 -18 -15 0 -20 23 -27
125 -8 114 -48 329 -77 410 -6 17 -13 43 -15 59 -2 16 -11 37 -19 46 -8 9 -15
35 -15 58 0 55 -15 92 -38 92 -16 0 -21 10 -26 48 -5 40 -14 57 -52 95 -25 26
-50 47 -55 47 -5 0 -9 17 -9 38 0 30 -5 41 -24 51 -13 8 -29 30 -37 53 -10 31
-21 44 -47 55 -22 9 -38 26 -48 49 -15 36 -50 57 -108 68 -14 3 -33 12 -42 20
-8 9 -22 16 -30 16 -8 0 -14 5 -14 10 0 12 -36 27 -81 35 -17 3 -71 26 -120
50 -188 95 -368 152 -539 171 -79 8 -303 10 -385 3z"/>
<path d="M625 2359 c-9 -14 -2 -20 14 -10 8 6 9 11 3 15 -6 3 -14 1 -17 -5z"/>
<path d="M640 2190 c0 -4 11 -21 24 -37 12 -15 26 -35 29 -43 4 -12 6 -11 6 3
1 25 -25 73 -44 80 -8 4 -15 2 -15 -3z"/>
<path d="M1455 1200 c3 -5 16 -15 28 -21 22 -12 22 -12 3 10 -19 21 -43 30
-31 11z"/>
</g>
</svg>
